<mxfile host="app.diagrams.net" modified="2024-04-23T22:00:37.376Z" agent="Mozilla/5.0 (X11; Linux x86_64; rv:109.0) Gecko/20100101 Firefox/115.0" etag="hbXEj6XHcscgZANdMcPZ" version="24.2.8" type="device">
  <diagram name="Page-1" id="jbVJIX1XXU8y7hbOP8EC">
    <mxGraphModel dx="683" dy="295" grid="1" gridSize="10" guides="1" tooltips="1" connect="1" arrows="1" fold="1" page="1" pageScale="1" pageWidth="850" pageHeight="1100" math="0" shadow="0">
      <root>
        <mxCell id="0" />
        <mxCell id="1" parent="0" />
        <mxCell id="3wWM3Kf5nyHWa91ICXlx-1" value="&lt;div&gt;vlab_clock_agent&lt;/div&gt;" style="rounded=0;whiteSpace=wrap;html=1;align=left;verticalAlign=bottom;" parent="1" vertex="1">
          <mxGeometry x="360" y="120" width="120" height="120" as="geometry" />
        </mxCell>
        <mxCell id="3wWM3Kf5nyHWa91ICXlx-2" value="" style="endArrow=none;html=1;rounded=0;entryX=1.001;entryY=0.167;entryDx=0;entryDy=0;entryPerimeter=0;snapToPoint=1;" parent="1" target="3wWM3Kf5nyHWa91ICXlx-1" edge="1">
          <mxGeometry width="50" height="50" relative="1" as="geometry">
            <mxPoint x="500" y="140" as="sourcePoint" />
            <mxPoint x="450" y="240" as="targetPoint" />
          </mxGeometry>
        </mxCell>
        <mxCell id="h24HJ43EZz5RD0Rp6nOz-1" value="" style="endArrow=none;html=1;rounded=0;entryX=1.001;entryY=0.167;entryDx=0;entryDy=0;entryPerimeter=0;snapToPoint=1;" parent="1" edge="1">
          <mxGeometry width="50" height="50" relative="1" as="geometry">
            <mxPoint x="500" y="179.89" as="sourcePoint" />
            <mxPoint x="480" y="179.89" as="targetPoint" />
          </mxGeometry>
        </mxCell>
        <mxCell id="h24HJ43EZz5RD0Rp6nOz-2" value="" style="endArrow=none;html=1;rounded=0;entryX=1.001;entryY=0.167;entryDx=0;entryDy=0;entryPerimeter=0;snapToPoint=1;" parent="1" edge="1">
          <mxGeometry width="50" height="50" relative="1" as="geometry">
            <mxPoint x="500" y="220" as="sourcePoint" />
            <mxPoint x="480" y="220" as="targetPoint" />
          </mxGeometry>
        </mxCell>
        <mxCell id="h24HJ43EZz5RD0Rp6nOz-3" value="" style="endArrow=none;html=1;rounded=0;entryX=1.001;entryY=0.167;entryDx=0;entryDy=0;entryPerimeter=0;snapToPoint=1;endFill=0;startArrow=classicThin;startFill=1;" parent="1" edge="1">
          <mxGeometry width="50" height="50" relative="1" as="geometry">
            <mxPoint x="360" y="140" as="sourcePoint" />
            <mxPoint x="340" y="140" as="targetPoint" />
          </mxGeometry>
        </mxCell>
        <mxCell id="h24HJ43EZz5RD0Rp6nOz-4" value="clock_in" style="text;html=1;align=right;verticalAlign=middle;whiteSpace=wrap;rounded=0;" parent="1" vertex="1">
          <mxGeometry x="280" y="130" width="60" height="20" as="geometry" />
        </mxCell>
        <mxCell id="h24HJ43EZz5RD0Rp6nOz-5" value="clock_out" style="text;html=1;align=left;verticalAlign=middle;whiteSpace=wrap;rounded=0;" parent="1" vertex="1">
          <mxGeometry x="500" y="210" width="60" height="20" as="geometry" />
        </mxCell>
        <mxCell id="h24HJ43EZz5RD0Rp6nOz-6" value="clock_en" style="text;html=1;align=left;verticalAlign=middle;whiteSpace=wrap;rounded=0;" parent="1" vertex="1">
          <mxGeometry x="500" y="170" width="60" height="20" as="geometry" />
        </mxCell>
        <mxCell id="h24HJ43EZz5RD0Rp6nOz-7" value="clock_pass_thru" style="text;html=1;align=left;verticalAlign=middle;whiteSpace=wrap;rounded=0;" parent="1" vertex="1">
          <mxGeometry x="500" y="130" width="100" height="20" as="geometry" />
        </mxCell>
      </root>
    </mxGraphModel>
  </diagram>
</mxfile>
